<?xml version="1.0" encoding="utf-8"?>
<!-- Generator: Adobe Illustrator 19.0.0, SVG Export Plug-In . SVG Version: 6.00 Build 0)  -->
<svg version="1.1" id="Layer_1" xmlns="http://www.w3.org/2000/svg" xmlns:xlink="http://www.w3.org/1999/xlink" x="0px" y="0px"
	 viewBox="0 0 500 500" style="enable-background:new 0 0 500 500;" xml:space="preserve">
<g id="XMLID_1_">
	<rect id="XMLID_3_" x="67.5" y="196.2" width="13.5" height="76.8"/>
	<path id="XMLID_6_" d="M115.5,217.3c-17.3,0-29.2,13.3-29.2,28.5c0,17,13,28.7,29.4,28.7c15.5,0,29-11.5,29-28.7
		C144.6,231.3,133.5,217.3,115.5,217.3L115.5,217.3z M115.3,230.3c9,0,15.7,7,15.7,15.5c0,9-7.3,15.6-15.5,15.6
		c-9.6,0-15.6-7.6-15.6-15.6C99.9,237.1,106.8,230.3,115.3,230.3z"/>
	<path id="XMLID_9_" d="M178.5,217.3c-17.3,0-29.2,13.3-29.2,28.5c0,17,13,28.7,29.4,28.7c15.5,0,29-11.5,29-28.7
		c0-10.1-4.4-14.6-4.4-14.6l3.7-1.3v-10.9h-19.1C187.9,218.9,183.7,217.3,178.5,217.3L178.5,217.3z M178.4,230.3
		c9,0,15.7,7,15.7,15.5c0,9-7.3,15.6-15.5,15.6c-9.6,0-15.6-7.6-15.6-15.6C163,237.1,169.8,230.3,178.4,230.3L178.4,230.3z"/>
	<path id="XMLID_10_" d="M194,276.7c0,9-7.3,15.6-15.5,15.6c-9.6,0-15.7-7.7-15.7-15.6h-13.7c0,17,13,28.7,29.4,28.7
		c15.5,0,29-11.4,29-28.7H194z"/>
	<rect id="XMLID_11_" x="213.1" y="218.9" width="13.5" height="54.1"/>
	<polygon id="XMLID_12_" points="239.6,273 239.6,231 232.4,231 232.4,218.9 239.6,218.9 239.6,202.3 253.1,202.3 253.1,218.9 
		260.6,218.9 260.6,231 253.1,231 253.1,273 	"/>
	<circle id="XMLID_13_" cx="219.8" cy="203.5" r="8.9"/>
	<path id="XMLID_16_" d="M290.9,217.3c-17.4,0-28.6,13.3-28.6,29c0,16.3,11.2,28.2,28.8,28.2c16.4,0,24.5-10.3,24.5-10.3l-9-9
		c0,0-6.8,7.3-15.3,7.3c-7.1,0-12.8-4-14.8-11.2h42v-3.7C318.6,232.8,310,217.3,290.9,217.3z M290.4,229.1c6.2,0,12.6,3.3,14,11.3
		h-28.2C277.3,234.8,282.2,229.1,290.4,229.1L290.4,229.1z"/>
	<path id="XMLID_17_" d="M352.3,274.5c-17.4,0-29.3-13.3-29.3-28.9c0-16.1,13.4-28.4,29.2-28.4c15.3,0,23.1,10.8,23.1,10.8l-9.4,9.4
		c0,0-5.4-7-13.8-7c-9.2,0-15.5,7.1-15.5,15.5c0,8.9,6.7,15.7,15.4,15.7c8.5,0,13.9-7,13.9-7l9.5,9.4
		C375.4,263.8,367.7,274.5,352.3,274.5L352.3,274.5z"/>
	<path id="XMLID_18_" d="M380.3,273v-77h13.5v28.3c0,0,5.2-7.1,16.4-7.1c14.1,0,22.3,10.5,22.3,23.9V273H419v-29.8
		c0-9-5.6-12.8-11.8-12.8c-7.1,0-13.4,4-13.4,13.5V273H380.3z"/>
</g>
</svg>
