<?xml version="1.0" encoding="utf-8"?>
<!-- Generator: Adobe Illustrator 26.0.3, SVG Export Plug-In . SVG Version: 6.00 Build 0)  -->
<svg version="1.0" id="Layer_1" xmlns="http://www.w3.org/2000/svg" xmlns:xlink="http://www.w3.org/1999/xlink" x="0px" y="0px"
	 viewBox="0 0 712.8 519.2" style="enable-background:new 0 0 712.8 519.2;" xml:space="preserve">
<style type="text/css">
	.st0{fill-rule:evenodd;clip-rule:evenodd;fill:#C1142C;}
</style>
<path class="st0" d="M393.7,114c3.4,0.5,6.8,1.2,10.1,2.1c11.1,2.9,21.7,7.3,31.6,13c10.1,5.7,19.4,12.7,27.7,20.8
	c1.2,1,2.1,2.2,3.2,3.2c8.6,9,15.9,19.1,21.8,30.1c6.1,11.2,10.9,23,14.3,35.3c5.5,19.4,7.9,39.5,8.4,59.6c0,0.9,0,1.8,0.1,2.7
	c0,3.8,0,7.6,0,11.5c0,0.6-0.1,1.1-0.5,1.6c-1-3-1.8-6.1-2.8-9.1c-3.8-11.8-9.4-22.9-16.6-33c-3.4-4.7-7.4-9.1-11.9-12.9
	c-3.5-3-7.3-5.5-11.5-7.5c0.1,1.6,0.3,3.2,0.5,4.8c0.6,4.9,1,9.9,1.1,14.9v6.8c-0.1,7.6-0.9,15.1-2.5,22.5
	c-1.1,4.9-2.6,9.7-4.6,14.3c-0.1,0.2-0.2,0.3-0.3,0.4c-0.2-0.5-0.2-1.1-0.2-1.6c-0.2-3.8-0.4-7.5-0.8-11.3
	c-0.7-6.8-2.3-13.4-4.9-19.7c-1.7-4.3-4.1-8.3-7.1-11.8c-0.5,0.4-0.5,1.1-0.5,1.7c-0.8,10.4-4.4,20.3-10.5,28.8
	c-4.3,5.8-9.9,10.6-16.3,14c-1,0.5-2,1-3,1.4c1.9-2.5,3.5-5.2,4.9-7.9c1.7-3.5,2.9-7.2,3.3-11.1c0.1-0.7,0.1-1.5,0.2-2.2
	c-0.5,0.1-1,0.4-1.4,0.8c-5.8,4.5-12.2,8.1-19.1,10.8c-7.1,2.9-14.4,5.1-21.9,6.6c-11.5,2.3-23.1,3.4-34.8,3.2
	c-0.4,0-0.7-0.1-1.1-0.3c0.9-0.5,1.9-0.9,2.8-1.3c8.6-3.8,16.6-9,23.6-15.3c1.2-1.1,2.4-2.2,3.5-3.4c7.9-8,13.6-17.9,16.4-28.8
	c0.2-0.7,0.4-1.3,0.6-2c1.3,2.4,2.2,5,2.6,7.6c0.7,4.8,0.6,9.7-0.2,14.4c-0.3,1.9-0.5,3.8-0.6,5.7c2.6-2.5,4.8-5.3,6.7-8.4
	c4.8-8.1,7.5-17.2,7.8-26.7c0-1.1,0.2-2.3,0-3.4c-0.3-9.3-2.2-18.6-5.6-27.3c-0.6-1.2-1-2.4-1.2-3.7c7.6,5.3,13.8,12.4,18,20.6
	c2.9,5.6,4.9,11.7,5.9,18c0.6-1.1,0.4-2.4,0.4-3.5s0.1-2.1,0.1-3.2v-7.5c-0.2-4.8-0.4-9.6-0.7-14.3c-0.8-11.2-2.3-22.4-4.5-33.4
	c-2-9.9-4.8-19.6-8.4-29c-4-10.8-9.5-21.1-16.3-30.4c-1.1-1.5-2.3-3-3.5-4.4C395.3,115.9,394.3,115,393.7,114L393.7,114z"/>
<path class="st0" d="M361.2,117c0.3-0.7,0.7-1.3,1.3-1.8c-0.1,1.5-0.4,3-0.8,4.5c-1.7,6.6-3.8,13-6.5,19.2c-2.4,6-5,11.9-7.5,17.8
	c-0.8,2-1.7,3.9-2.5,5.9c0.3,0,0.6,0,0.9-0.2c8.2-4,15.5-9.7,22.1-16c0.8-0.8,1.6-1.6,2.4-2.4c6.3-6.4,12.1-13.4,17.2-20.8
	c0.8-1.2,1.6-2.4,2.5-3.6c0.1-0.2,0.4,0.1,0.5,0.2c-1.9,5.8-4.2,11.5-6.9,17c-7.6,15.2-18.8,28.3-32.7,38c7.4,0.1,14.8-1.1,22.1-2.4
	c4-0.7,8-1.5,12-2.2c-2.2,1.8-4.5,3.4-6.9,4.8c-5.4,3.2-11.3,5.5-17.4,6.9c-3.2,0.8-6.4,1.3-9.7,1.8c-7.4,1.1-14.8,2-22.1,3.2
	c-3.5,0.6-6.9,1.3-10.3,2.2c-3.2,0.8-6.1,2.3-8.5,4.5c-1.8,1.7-3.2,3.8-4,6.2c-1,2.8-1.5,5.7-1.5,8.7c-0.1,1.7,0,3.3,0.1,5
	c0.2,2.5,0.5,5,0.9,7.4c2-2.3,4.4-4.2,7-5.8c2.1-1.3,4.5-2.2,6.9-2.7c-1.1,0.9-2.2,1.8-3.2,2.8c-1.8,2.1-3.3,4.4-4.3,7
	c-1.3,3.4-2.3,6.9-2.8,10.5c-0.3,1.9-0.5,3.9-0.6,5.9c-0.2,2,0.1,4,0,6c-0.1,1.8-0.4,3.5-0.9,5.2c-0.8,2.6-2.7,4.8-5.1,6
	c-2.7,1.4-5.9,1.4-8.9,1.6c-2.8,0-5.5-0.8-7.9-2.4c-3.1-2-5.8-4.4-8.2-7.2c-1-1.1-1.9-2.3-2.7-3.7c2.6,1.5,5.4,2.9,8.2,4
	c3.1,1.3,6.4,1.9,9.7,2c1.8-0.1,3.4-1,4.4-2.5c0.5-0.5,0.6-1.2,0.3-1.9c-1-1.9-2.4-3.5-4.2-4.6c-0.4-0.2-0.8-0.6-1-1
	c1.7,0.1,3.4-0.1,5.1-0.3c0.7-0.2,1.6-0.2,2.1-0.9c0.2-0.8,0.2-1.6,0.1-2.3c-0.3-4.1-1.4-8.1-3.2-11.8c-0.5-1.1-1.2-2.1-1.7-3.2
	c-1.6-3.4-2.7-7-3.2-10.8c-0.5-3.6-0.8-7.2-0.7-10.8c0-1.8-0.1-3.5,0.1-5.3c0-0.9,0-1.9,0-2.8c-1.4-0.4-2.9-0.2-4.1,0.6
	c-0.9,0.8-1.5,1.8-1.9,2.9c-0.7,1.4-1.3,2.8-2,4.2c-0.7,1.4-1.2,2.8-1.6,4.2c-0.2,0.9-0.4,1.8-0.6,2.7c-1.2-1.5-1.7-3.5-2.7-5.2
	c-0.8,0.3-1.4,0.9-2.1,1.3c-1.4,0.8-3,1.4-4.6,1.8c-0.7,0.1-1.5,0.3-2.1,0.8c-0.5,0.5-0.8,1-1.1,1.6c-0.9,1.6-1.7,3.3-2.2,5.1
	c-0.2,0.6-0.2,1.4-0.7,1.9c-0.9-1.9-1.9-3.8-2.7-5.7c-0.4-0.8-0.7-1.7-1.1-2.6c-1.9,0.3-3.9,0.4-5.8,0.9c-1.1,0.3-1.9,1.1-2.2,2.2
	c-0.9,2.9-1.1,5.9-0.6,8.9c0.3,1.9,0.8,3.8,1.3,5.7s0.9,3.6,1.4,5.3c-1.4-0.7-2.8-1.6-3.9-2.7c-2.3-2.1-4.2-4.6-5.6-7.4
	c-1.1-2.3-2-4.7-3.1-7c-1.3-2.9-2.5-5.9-4-8.7c-2.7-5.7-5.1-11.6-7.3-17.6c-0.2-0.6-0.4-1.2-0.5-1.8c0.8-0.1,1.7-0.1,2.5,0.1
	c3.3,0.2,6.6,0,9.8-0.8c6.4-1.5,12.5-4.1,18-7.6c7.5-4.8,14.4-10.4,20.7-16.8c0.7-0.9,1.6-1.6,2.3-2.4c2.7-2.9,5.3-5.9,7.8-8.9
	c3.1,1.1,6.2,2.3,9.4,3.3c3.2,1,6.4,1.9,9.7,2.5c1.8,0.4,3.7,0.2,5.4-0.4c1.3-0.5,2.5-1.3,3.5-2.4c3.4-4.1,6.5-8.5,9-13.2
	c0.9-1.6,1.8-3.2,2.9-4.8c-0.1,1.8-0.3,3.7-0.8,5.4c-1.2,6.2-2.6,12.4-4.1,18.5c1.2-0.1,2.4-0.3,3.6-0.6c3-0.8,5.6-2.3,7.8-4.5
	c2.1-2.3,4.1-4.6,5.9-7C350.8,135.4,356.1,126.2,361.2,117L361.2,117z M289.4,166.1c-4.1,4-8.5,7.8-12.7,11.7c0,0.1,0,0.2,0.1,0.3
	c4.4-0.7,8.8-1.4,13.1-2c1.5-5,3-10.1,4.5-15.1C292.8,162.8,291.1,164.4,289.4,166.1L289.4,166.1z"/>
<path class="st0" d="M334.8,191.8c3.7-0.4,7.4-0.5,11.2-0.3c3.6,0.2,7.1,0.9,10.5,2.1c5.5,1.7,10.6,4.7,14.9,8.6
	c4.3,4.1,7.4,9.3,9,15c1,3.8,1.7,7.7,2.1,11.6c0.4,2.9,0.9,5.8,1,8.7c-1-1-1.9-2.1-2.9-3.1s-1.9-2.1-2.9-3.1
	c-0.1-0.1-0.2-0.2-0.4-0.2c-0.1,0-0.2,0.1-0.2,0.2c0,0.5,0.1,1,0.2,1.5c0.7,3.9,0.8,7.9,0.3,11.8c-0.9,6.4-2.4,12.6-4.6,18.6
	c-0.1,0.4-0.3,0.8-0.7,1.2c-0.1-1.2,0-2.4,0-3.6c-0.1-3.7-0.5-7.5-2.4-10.8c-1.1,5.8-3,11.5-5.5,16.8c-2.2,4.4-4.9,8.6-8.2,12.3
	c-0.3,0.4-0.6,0.7-1,1.1c1.1-3.2,2-6.4,2.5-9.7c0.2-1.1,0.1-2.2,0.2-3.3c-0.4,0.2-0.8,0.4-1.2,0.7c-2.2,2-4.4,4-6.4,6.2
	c-1.8,1.9-3.1,4.1-4,6.5c-1,3-1.3,6.3-0.9,9.4c0.3,2.3,0.8,4.6,1.4,6.9h-69.2c0.2-1.4,0.5-2.8,0.8-4.3c1.3-6.2,3.9-12.1,7.8-17.2
	c3.9-5.1,8.7-9.5,14-13.1c4.8-3.2,9.9-6.1,15.1-8.6c5-2.6,10.3-4.8,15.1-7.8c5.1-3,9.6-6.7,13.5-11c2-2.2,3.7-4.8,5-7.5
	c1.3-2.7,2.1-5.7,2.3-8.7c0.2-3.4-0.8-6.7-2.8-9.4c-1.6-2-3.6-3.7-5.9-4.8c-6.3-3.1-13.4-4.3-20.4-3.5c-3.1,0.3-6,1.8-8,4.2
	c-0.9,1-1.6,2.2-2.4,3.3c-0.3-1.2-0.2-2.5,0.1-3.6c0.7-2.7,2.4-5.1,4.6-6.7c2.4-1.8,5-3.2,7.8-4.1
	C327.7,193,331.2,192.2,334.8,191.8L334.8,191.8z"/>
<path class="st0" d="M128.7,289c-0.2-1.1-0.2-2.2-0.1-3.3c1.2,0.3,2.3,0.9,3.4,1.3c6.4,2.5,13.1,4.1,19.6,6.2
	c5.6,1.6,10.8,4.2,15.5,7.5c2.6,1.9,4.8,4.4,6.4,7.1c1.8,3.1,2.8,6.5,3,10c0.3,3.6-0.2,7.3-1.4,10.7c-0.9,2.5-2.4,4.8-4.3,6.7
	c-2.8,2.8-6.3,4.9-10,6.3c-1.4,0.4-2.7,1-3.9,1.7c8.8,7.6,17.6,15.1,26.8,22.4c0.7,0.5,1.3,1.1,2,1.6c0.6-1.5,0.4-3.1,0.6-4.7
	c0.2-4,0.4-8,0.3-12c0.2-2.2,0-4.3,0.1-6.5c0.1-2.1-0.1-4.3,0.1-6.5c0-2.6-0.1-5.1,0.1-7.7v-5.7c-0.1-1.2-0.2-2.5-0.3-3.7
	c-0.1-0.7,0-1.4-0.1-2.1c-0.2-1.2-0.9-2.3-1.9-3c-2-1.8-4.1-3.5-6.2-5.2c3.6,0,7.3-0.1,10.9,0.2c2,0.1,3.9,0.4,5.9,0.3
	c4.3,0.1,8.6-0.4,12.9-0.3c1.3,0,2.6-0.1,3.9-0.1c3.3-0.1,6.6-0.2,9.9-0.3c1.7-0.1,3.4-0.3,5.1-0.3c-0.4,4.7-0.7,9.5-1.2,14.2
	c-2.4-2-4.8-4.1-7.8-5.3c-2.7-1-5.6-1.3-8.4-0.9c-2.3,0.2-4.6,0.6-6.8,1.2c-0.7,0-1.3,0.2-1.9,0.6c-0.5,0.6-0.4,1.4-0.5,2.1
	c-0.3,2.1-0.2,4.3-0.3,6.4c0,1.5-0.1,2.9-0.1,4.4c-0.1,1-0.1,2-0.1,3c-0.1,1.3,0,2.7-0.1,4c0.3,0.1,0.6,0.2,0.9,0.2
	c1.4,0.1,2.9,0.1,4.3,0c4.1,0,8.3-0.3,12.4-0.7c1.1-0.1,2.1-0.7,2.7-1.6c1-1.2,2.2-2.4,3.5-3.4c0.1,1,0,2,0.1,3.1c0.1,1,0,1.9,0,2.9
	c0,1,0.1,1.9,0.1,2.9c0,1.7,0.1,3.3,0.1,5c0,0.9,0.1,1.8,0.1,2.6c-1.5-0.4-2.8-1.1-4.3-1.5c-6.2-2-12.8-2.1-19-0.3
	c-0.5,0.2-0.8,0.7-0.7,1.2c0.3,5.8,0.5,11.5,0.8,17.3c0,0.4,0,0.8,0.1,1.2c0.3,0.2,0.6,0.3,1,0.3h13.7c2.6,0.1,5.1-0.4,7.5-1.4
	c1.5-0.7,2.7-1.9,3.4-3.4c0.2-0.7,0.6-1.3,1.1-1.8c0.6,2.7,1.8,5.2,3.5,7.4c0.6-3.6,1-7.2,1.4-10.8c0.5-5.4,1.3-10.8,1.5-16.2
	c-0.1-1.3,0.2-2.5,0-3.8c-0.1-3.9-0.4-7.7-0.7-11.5c-0.3-3.8-0.6-7.9-1-11.8c-0.3-2-0.5-4.1-0.5-6.1c4,0,8-0.1,12,0.2
	c3.8,0.1,7.6,0.6,11.3,1.4c6.4,1.6,12.7,4,18,8c4.4,3.1,7.8,7.5,9.7,12.6c1,2.8,1.6,5.8,1.8,8.8c0.1,0.9,0,1.7,0.1,2.5
	c0,1.3,0,2.5,0.1,3.8c0.1,0.4,0.4,0.7,0.7,0.7c0.6,0,1.2,0,1.8,0c0.3-1.2,0.3-2.5,0.2-3.8c-0.1-1,0-2.1-0.1-3.1c-0.1-1,0-2-0.1-2.9
	c-0.1-1,0-2.2-0.1-3.4s0-2.1-0.1-3.1c-0.1-1,0-2.2-0.1-3.2s0-2-0.1-3c0-1,0-2.1-0.1-3.2c-0.1-1.1,0-2.2-0.1-3.3
	c-0.1-1.1,0-2.1-0.1-3.2c-0.1-1.1,0-2.3-0.1-3.4c-0.1-0.5-0.1-1,0.1-1.5c0.2-0.1,0.5-0.2,0.8-0.2c6.4-0.2,12.9,0.1,19.2,1
	c3,0.4,5.9,1.2,8.7,2.3c2.7,1.1,5.1,2.7,7.2,4.7c5.5,5.2,7.1,13.4,4,20.3c-1.9,3.8-5.5,6.3-9.3,8c-2.2,1.1-4.7,1.6-7,2.5
	c2.9,3.6,6,7,9.4,10.1c2.3,2.2,4.8,4.2,7.5,6c-1.5,0.2-3,0.4-4.5,0.6c1.8,1.8,3.9,3.1,6.2,4c0.5-1.3,1-2.7,1.4-4.1
	c1.1-4,2.3-8,3.4-12c2.6-9.4,5-18.9,7.4-28.4c1-3.8,1.9-7.6,3-11.3c0.1-0.6,0.7-1.1,1.4-1.1c5-0.3,9.9-0.7,14.9-1
	c4.7-0.2,9.4-0.5,14-0.8c0.6,0,1.3,0,1.9,0c-1.1,0.9-2.3,1.7-3.4,2.5c-1.7,1.2-3.4,2.5-5.1,3.7c7.4,16.9,14.9,33.8,22.3,50.7
	c0.3,0.8,0.7,1.5,1.3,2.1c0.6,0.5,1.2,0.9,1.9,1.1c1.4,0.8,2.9,1.5,4.4,2.3c0.6,0.3,1.2,0.6,1.7,1c-8.5,0-17,0-25.5,0
	c-1.4,0-2.7,0-4.1,0c1.1-1,2.3-1.8,3.6-2.3c1.2-0.7,2.5-1.3,3.7-2c-0.3-1.3-0.9-2.5-1.4-3.8c-1.9-4.8-3.8-9.5-5.7-14.3
	c-0.2-0.6-0.4-1.1-0.7-1.6c-0.2-0.3-0.7-0.5-1.1-0.4c-2.2,0.2-4.4,0.3-6.6,0.4c-2.9,0.2-5.8,0.5-8.7,0.8c-1.2,0.1-2.3,0.2-3.5,0.5
	c-1.8,6.7-3.6,13.3-5.5,20c2.2,0.8,4.4,1.8,6.6,2.6c-1,0.1-2-0.1-3.1,0c-1.4,0-2.8-0.2-4.2,0c-0.8,0.1-1.5,0-2.3,0
	c-8.9,0.2-17.8,1.2-26.7,1.4c-1.5-3.4-3-6.7-4.7-10c-0.7-1.6-1.5-3.1-2.2-4.6c-1.6-3.1-3-6.2-4.6-9.3c-0.2-0.5-0.4-0.9-0.7-1.4
	c-0.3-0.4-0.9-0.4-1.3-0.1c-0.2,0.2-0.3,0.4-0.3,0.6c0,0.8,0.1,1.5,0.1,2.2c-0.2,3.5,0,7-0.1,10.5c-0.1,1.3,0,2.6-0.1,3.9
	c-0.1,0.9,0,1.8,0.4,2.6c0.4,0.7,1.3,0.9,2,1.3c1,0.6,2,1.3,2.9,2c-7.7,1-15.5,1.7-23.3,2.2c2.4-8.7,4.5-17.5,5-26.5
	c-0.9-0.2-1.8-0.5-2.6-0.7c-0.4,3-1,5.9-2,8.8c-1.6,4.1-4.4,7.7-8,10.2c-2.3,1.6-4.9,2.9-7.5,4c-5.2,2.2-10.7,3.5-16.3,4.1
	c-2.8,0.3-5.6,0.4-8.4,0.4c-1,0.1-2.1,0-3.2,0.1c-1.5,0.1-3,0-4.5,0.2c-4,0.4-8,0.2-12.1,0.2c-1.5,0-3-0.1-4.5-0.1
	c-1.9,0-3.8,0.1-5.7-0.1c-2.8,0-5.6-0.2-8.4-0.1c-2.8,0.1-5.4,0.3-8.1,0.2c-1,0-1.9,0.1-2.9,0.1c-0.8,0.1-1.7,0.2-2.5,0.1
	c0.1,0.3,0.3,0.5,0.5,0.7c3.8,4.5,8,8.7,12.3,12.7c3.6,3.3,7.5,6.4,11.6,9c-1.3,0.3-2.7,0.5-4,0.5c-6.9,0.4-13.8,0.8-20.6,1.4
	c-0.8,0.1-1.5-0.3-1.9-1c-9.8-13.6-19.5-27.2-29.3-40.8c-3-4.2-5.8-8.5-8.2-13.1c-0.3-0.6-0.6-1.2-1-1.8c-1.1,0.1-2.2,0.2-3.3,0.4
	c-0.2,0.3-0.1,0.6-0.2,0.9c-0.3,2.7-0.4,5.5-0.3,8.2c-0.2,1.6,0,3.2-0.1,4.8c0,1.2,0.1,2.4-0.1,3.6c0,1,0,2,0,3s0,2.2-0.1,3.3
	c-0.1,1.1,0,2.2-0.1,3.3c0,1,0.5,2,1.4,2.5c1.6,1,3.2,2.2,4.6,3.5c-3.6,0.6-7.1,1-10.7,1.4c-5,0.5-10,1.1-15.1,1.4
	c2.7-12.3,5.2-24.6,5.9-37.2c-3.6-1-7.3-1.8-10.7-3.6c1.6,0.1,3.1,0.4,4.6,0.6c2.1,0.3,4.1,0.6,6.2,0.9c0-2,0.2-4,0-5.9
	c-0.1-0.9,0-1.8,0-2.8C131,318.1,130.3,303.5,128.7,289L128.7,289z M148.1,302.5c-0.5,0.5-0.7,1.2-0.7,1.9c0.1,0.9-0.1,1.9-0.1,2.8
	c-0.3,6.8-0.7,13.6-0.8,20.4c-0.1,1.1,0,2.2-0.1,3.3c0,1.5-0.1,2.9-0.1,4.4c-0.1,1.1,0,2.1-0.1,3.2c-0.1,0.8,0.1,1.6-0.1,2.5
	c1.3-0.3,2.6-0.6,3.9-1c2.6-0.8,5-2.2,6.9-4.2c1.6-1.8,2.7-4,3.1-6.4c1.3-5.8,1.1-11.9-0.7-17.5c-0.9-2.8-2.4-5.3-4.5-7.4
	c-1.2-1.2-2.8-2-4.5-2.2C149.7,301.9,148.8,302.1,148.1,302.5L148.1,302.5z M300.1,320c-0.1,2.1,0.1,4.3,0.1,6.4
	c0.2,1.6,0,3.3,0.1,5c0,1.1,0,2.1,0,3.2c0.1,0.7,0.1,1.3,0.1,2c0,1.7,0.1,3.4,0.1,5.1c0.8,0.1,1.5,0,2.2-0.3c4.5-1,8.5-3.6,11.4-7.2
	c0.9-1.3,1.4-2.8,1.5-4.3c0.1-2.5-0.9-5-2.8-6.7c-1.2-1-2.6-1.8-4.1-2.2c-1.8-0.6-3.7-1-5.7-1.2C302.1,319.5,301,319.6,300.1,320
	L300.1,320z M246,321.9c0.1,1.2,0.3,2.4,0.4,3.6c0.5,3.8,0.8,7.6,1.1,11.4c0.5,6.9,0.3,13.8-0.4,20.6c-0.3,2.9-0.8,5.8-1.1,8.8
	c1.4,0,2.7-0.1,4.1-0.3c1.8-0.2,3.5-0.6,5.2-1c4.6-1,8.8-3.4,12.2-6.7c1.6-1.7,2.9-3.6,3.8-5.8c0.8-1.6,1.2-3.3,1.2-5
	c-3.4,1.8-6.9,3.2-10.7,4c0.8-1.3,1.6-2.7,2.3-4c1.4-2.7,2.3-5.6,2.7-8.6c0.3-3.4-0.2-6.7-1.6-9.8c-1.1-2.3-3-4.1-5.4-5.1
	c-1.6-0.5-3.2-0.9-4.9-1.1c-2.4-0.4-4.9-0.8-7.3-1.2C247,321.7,246.4,321.7,246,321.9L246,321.9z M358,321.7
	c-1.6,4.5-2.7,9.1-4,13.7c-0.7,2.5-1.3,5.1-1.7,7.6c2.1,0,4.2,0,6.3,0c2.6,0,5.2-0.2,7.8-0.1C363.5,335.9,360.8,328.8,358,321.7
	L358,321.7z"/>
<path class="st0" d="M558.4,286c11.1,0,22.3,0,33.4,0c0,0.6,0,1.2,0,1.8c-1.4,0.6-2.8,1.2-4.2,1.8c-0.5,0.2-0.8,0.6-0.8,1.1
	c-0.2,2.5-0.2,4.9-0.3,7.4c-0.1,0.8-0.1,1.6,0,2.4c-0.2,4.9,0,9.8-0.2,14.6c0,5,0,9.9,0,14.9c-0.2,3.1-0.1,6.2-0.1,9.3
	c0,1.7,0.1,3.4-0.1,5.1c0,2.5,0,5,0,7.5c0,1.6,0.1,3.3-0.1,5c0,4.2,0,8.3,0,12.5c-0.1,1.8,0,3.5-0.1,5.3c0,4.7,0,9.3,0,14
	c-0.1,1.7,0,3.4-0.1,5.1c0,2.7,0.1,5.4-0.1,8.1c-0.1,1-0.1,2.1-0.3,3.2c-0.3-0.4-0.7-0.8-1-1.2c-3-5.1-6.1-10.1-9-15.3
	c-6.1-10.8-12.1-21.5-18.2-32.2c-6.7-11.8-13.3-23.6-20.2-35.3c-0.5-1-1.1-1.9-1.9-2.7c-0.1,0.9,0,1.7,0,2.6c-0.1,1.7,0,3.3,0.1,5
	c0,1.9,0,3.8,0,5.7c0.1,1.6,0,3.3,0.1,5c0,1.4,0.1,2.8,0.1,4.2c0.3,8.6,0.6,17.3,1.1,25.9c0.2,2.2,0.4,4.4,0.6,6.6
	c3.1,1.1,6.3,2.2,9.4,3.4c-2.1,0.1-4.2,0.1-6.2,0.1c-2.1,0.2-4.3,0-6.5,0.1c-1.8-0.1-3.6,0-5.4-0.1c-0.9,0-1.8-0.1-2.7-0.1
	c-0.9,0-2,0-3-0.1c-1.2-0.1-2.4,0-3.6-0.1s-2.4,0-3.6-0.1c-1.2-0.1-2.1,0-3.2,0c-1.1,0-2.5,0-3.7-0.1c0.4-0.3,0.9-0.6,1.5-0.8
	c1.5-0.8,3.1-1.5,4.7-2.1c0.9-0.5,1.5-1.5,1.5-2.6c0.2-3.1,0.4-6.2,0.5-9.4c0.4-7,0.6-14,0.8-21c0.1-1,0-2,0.1-3s0-1.9,0.1-2.9
	c-0.1-1.2,0.1-2.4,0.1-3.6c0-0.9,0.1-1.8,0.1-2.7c0-1.2,0.1-2.3,0.1-3.5c0-0.9,0.1-1.8,0.1-2.7c0-1.3,0.1-2.6,0.1-3.9
	c0.1-1,0.1-1.9,0.1-2.9c0-1,0-1.9,0.1-2.9c0.1-2.5,0.1-5,0.1-7.4c-3.3-1.2-6.7-2.2-10.1-3.4c0.4-0.3,0.9-0.5,1.4-0.5
	c1.7,0.1,3.5,0,5.2,0h16.9c1.3,0,2.6-0.1,3.9-0.1c1.7-0.1,3.4-0.1,5.1-0.2c0.5,0,1.1,0,1.6-0.1c2.9,5.1,6,10,9,15
	c4.8,7.8,9.6,15.6,14.4,23.4c0.6,1,1.3,1.8,2.2,2.5c0-0.9,0.1-1.8,0.2-2.7c0-1.2,0-2.4,0-3.6c0.2-3,0-6,0.2-9c0-3.2-0.1-6.3,0.1-9.5
	v-7.5c0-1.5,0.1-3-0.1-4.5c0-2.2-0.1-4.4-0.2-6.6c-0.1-1.4-0.1-2.7-0.2-4.1c-0.1-1.4-0.4-2.5-0.5-3.8c-0.1-0.7-0.6-1.2-1.3-1.4
	c-2.2-0.8-4.4-1.6-6.7-2.5C559.4,286.8,558.7,286.7,558.4,286L558.4,286z"/>
<path class="st0" d="M412.8,312.4c3.7-0.9,7.5-1.3,11.3-1.1c3,0.2,6.1,0.7,9,1.5c4,0.9,7.9,2,11.8,3c0.9,0.2,1.9,0.5,2.8,0.9
	c-0.6,1-1.2,2-1.8,3.1c-1.7,3.6-2.9,7.5-3.3,11.4c-2-1.8-4.2-3.5-6.4-5c-2.9-1.9-6-3.4-9.3-4.3c-3.5-1-7.2-1.3-10.9-0.7
	c-2.7,0.4-5.3,1.3-7.6,2.7c-2.5,1.5-4.4,3.6-5.7,6.2c-1.6,3.7-1.8,8-0.5,11.8c0.9,2.6,2.2,4.9,4.1,6.9c0.8,0.9,1.6,1.7,2.4,2.5
	c-1.7,0-3.3-0.3-4.8-1.1c-1.2-0.5-2.2-1.3-3.3-1.9c0.4,3.1,1.3,6.1,2.8,8.8c1.4,2.6,3.4,4.7,5.8,6.3c3,1.8,6.3,2.9,9.8,3.2
	c4.9,0.5,9.8-0.3,14.3-2.3c0.7-0.3,1.1-0.9,1.3-1.7c0.5-2.7-0.1-5.4-0.2-8.2c0-0.8-0.5-1.5-1.2-1.8c-2.6-1.2-5.1-2.6-7.7-3.6
	c-2.7-1-5.2-1.9-7.8-2.8c-0.4-0.1-0.7-0.4-0.9-0.7c1.1,0,2.2-0.1,3.4-0.1c1.1,0.1,2.3-0.1,3.5-0.1s2.6-0.1,3.9-0.1
	c3.6-0.1,7.2-0.1,10.8-0.4c1.7-0.1,3.5-0.2,5.2-0.2c0.6,7.2,0.8,14.4,1.9,21.4c0.4,2.7,1,5.4,1.8,8.1c-1,0.2-2,0.3-3,0.3
	c-2.9,0.1-5.7,0.2-8.6,0.2c-1,0-1.9,0.1-2.9,0.1c-2.2,0-4.3,0.1-6.5,0.1c-1.8,0.1-3.6,0.1-5.4,0.1h-5.7c-3.5-0.2-6.9-0.9-10.1-2.2
	c-2.8-1.1-5.4-2.7-7.7-4.8c-2.2-2-4.1-4.5-5.5-7.2c-2.7-5.5-4.1-11.5-4-17.7c0-4.1,0.8-8.1,2.3-11.9c1.3-3.1,3.2-6,5.5-8.5
	c2.1-2.3,4.4-4.3,7-6C405.7,314.7,409.2,313.2,412.8,312.4L412.8,312.4z"/>
<path class="st0" d="M470.1,312.6c3.7-0.8,7.5-1,11.3-0.5c6.1,0.8,11.8,3.6,16.1,8c3.9,4.3,6.6,9.5,8,15.1c0.8,3.2,1.3,6.5,1.5,9.8
	c0,0.7,0,1.4,0.1,2.1c2-2,3.8-4.2,5.4-6.5c0.4-0.5,0.8-1,1.2-1.5c-0.3,3.2-1.1,6.3-2.3,9.3c-1.2,3.1-2.6,6-4.3,8.9
	c-1.4,2.5-2.8,5.1-4.1,7.6c-1.6,3-3.7,5.6-6.4,7.6c-4,2.9-8.8,4.4-13.7,4.3c-2.7,0-5.3-0.1-8-0.2c-3.3-0.2-6.6-1.1-9.6-2.6
	c-2.6-1.5-4.9-3.5-6.6-6c-1.6-2.4-2.9-5.1-3.8-7.8c-0.9-3-1.8-6-2.6-9.1c-1.6,2.3-3.3,4.6-5,6.8c-0.3-1.8-0.5-3.5-0.6-5.3
	c-0.1-4,0.3-8,1.3-11.9c1.5-6.4,4.2-12.5,7.9-18c1.5-2.5,3.5-4.7,5.9-6.5C464.2,314.5,467.1,313.2,470.1,312.6L470.1,312.6z
	 M474.8,323.2c-2.3,0.2-4.5,1-6.5,2.1c-2.2,1.4-4.1,3.3-5.3,5.7c-1.8,3.3-2.6,7-2.5,10.8c-0.2,5,0.8,9.9,2.9,14.4
	c1.3,2.6,3.1,4.8,5.4,6.5c2.7,1.9,5.9,3,9.2,3.2c3.4,0.4,6.7-0.3,9.7-1.9c2.4-1.3,4.4-3.2,5.9-5.6c1.7-2.9,2.7-6.1,3.1-9.4
	c0.4-3.4,0.1-6.7-0.8-10c-0.7-3-1.9-5.8-3.6-8.4c-1.8-2.5-4.2-4.6-7-5.9C482,323.2,478.3,322.7,474.8,323.2L474.8,323.2z"/>
<path class="st0" d="M475.3,337c1.2-2.6,2.1-5.3,2.7-8.1c1.1,3.1,1.8,6.4,3.4,9.3c1,1.8,2.4,3.3,4,4.5c-2.5,1.2-4.4,3.4-5.2,6
	c-1.3,3.8-1.6,7.7-2.3,11.6c-0.1-0.5-0.2-1.1-0.2-1.7c-0.1-2.5-0.5-5-1.1-7.4c-0.6-2.2-1.6-4.2-3.1-6c-1-1-2-1.9-3.2-2.7
	C472.5,341.1,474.2,339.2,475.3,337L475.3,337z"/>
</svg>
